@startuml function_call_contract_good

state "Input check" as Input

[*] --> Input : call (arguments)

Input --> Exception : unacceptable\narguments

Input -> Execution

state "Output check" as Output

state "Expected\nresult" as EResult

Execution --> Output

Output --> EResult : expected\narguments

Exception --> [*]

EResult -left-> [*]

@enduml